<svg width="1440" height="89" viewBox="0 0 1440 89" fill="none" xmlns="http://www.w3.org/2000/svg">
<path d="M109.5 67.4633L-86.0362 42.895C-97.0442 41.5119 -105.369 32.2598 -105.587 21.1673C-105.831 8.72681 -95.8631 -1.51527 -83.4205 -1.60959L1478.04 -13.4456C1494.09 -13.5672 1507.25 -0.760877 1507.56 15.2822C1507.79 26.7939 1501.25 37.3709 1490.85 42.3174L1423.69 74.2711C1387.82 91.3343 1346.45 92.5972 1309.6 77.7534C1292.74 70.9566 1274.72 67.4633 1256.53 67.4633L1175 67.4633L1059.56 59.64C1044.21 58.6 1028.79 59.6476 1013.73 62.7541L930.196 79.9794C910.879 83.9627 891.017 84.5542 871.497 81.7272L689.62 55.3868C681.55 54.2182 673.407 53.6316 665.254 53.6316L516.092 53.6316L351.962 57.6129C339.36 57.9186 326.831 59.625 314.606 62.7008L256.26 77.3804C233.661 83.0661 210.135 84.045 187.143 80.2565L109.5 67.4633Z" fill="#FFFFFF"/>
</svg>
