<svg width="446" height="589" viewBox="0 0 446 589" fill="none" xmlns="http://www.w3.org/2000/svg">
<path d="M655.074 432.571C655.519 435.447 654.807 438.382 653.093 440.733L442.524 729.642C439.882 733.266 435.304 734.924 430.953 733.831L191.7 673.707C136.553 659.849 106.643 600.185 128.534 547.707L142.687 513.78C158.654 475.504 145.029 431.284 110.288 408.632L32.2709 357.762C-18.8236 324.447 -4.73087 246.082 54.7694 232.656L58.4983 231.814C109.992 220.194 144.366 171.524 138.097 119.109L132.037 68.4452C126.888 25.3921 167.039 -9.13689 208.836 2.39994L303.192 28.4442L438.933 73.8078C542.944 108.567 618.837 198.5 635.615 306.874L655.074 432.571Z" fill="#c1c2b520"/>
</svg>
