<svg width="834" height="536" viewBox="0 0 834 536" fill="none" xmlns="http://www.w3.org/2000/svg">
<path d="M3.46014 132.328C6.27809 91.4677 30.2571 55.0557 66.6815 36.3269L111.529 13.267C135.748 0.81379 163.553 -2.80062 190.152 3.04674L323.088 32.2713C331.338 34.0851 339.761 35 348.209 35H550L746.156 58.0556C788.947 63.0852 823.57 95.2175 831.775 137.515C837.309 166.05 830.022 195.576 811.847 218.259L778 260.5L729.565 327.703C711.246 353.121 713.559 387.967 735.077 410.74C770.721 448.463 750.247 510.684 699.167 519.869L621.645 533.81C600.997 537.523 579.714 535.136 560.401 526.943L435.349 473.891C417.72 466.411 398.523 463.374 379.446 465.045L203 480.5L144.874 485.866C73.103 492.49 12.4676 433.273 17.3927 361.366L21.7868 297.213C22.591 285.472 21.619 273.676 18.9037 262.224L4.10278 199.803C1.38321 188.334 0.412488 176.519 1.22349 164.759L3.46014 132.328Z" fill="#d1d7dda3"/>
</svg>
